<?xml version="1.0" encoding="utf-8"?>
<!-- Generator: Adobe Illustrator 26.0.3, SVG Export Plug-In . SVG Version: 6.00 Build 0)  -->
<svg version="1.1" id="Layer_1" xmlns="http://www.w3.org/2000/svg" xmlns:xlink="http://www.w3.org/1999/xlink" x="0px" y="0px"
	 viewBox="0 0 1125.8 182" style="enable-background:new 0 0 1125.8 182;" xml:space="preserve">
<style type="text/css">
	.st0{fill:#FFCA00;}
	.st1{enable-background:new    ;}
	.st2{fill:none;stroke:#020202;stroke-miterlimit:10;}
</style>
<path class="st0" d="M30.4,2.3c9-0.1,15.9,2.9,21.7,8.7c22.8,22.8,45.6,45.6,68.3,68.3c11.5,11.5,11.8,29.6,0.8,41.1
	c-11.3,11.8-29.5,12.4-41.6,1.2c-1.3-1.2-2.6-2.6-3.9-3.9C54.1,96,32.4,74.4,10.8,52.7C-2.6,39.2-0.9,18,14.5,7.4
	C19.5,3.9,25,2,30.4,2.3z"/>
<path class="st0" d="M56,129.5c-17.7,0-35.7,0-53.9,0c0-18.3,0-36.3,0-53.9C19.9,93.5,38,111.5,56,129.5z"/>
<path class="st0" d="M75.9,2.4c17,0,35,0,53.2,0c0,18.1,0,36.1,0,53.2C111.5,38.1,93.5,20.1,75.9,2.4z"/>
<g>
	<g>
		<path d="M159.3,41.6c0-7.6,2-14.3,6-20.2c4-5.8,9.4-10.4,16.4-13.8c7-3.3,14.9-5,23.9-5c9.1,0,16.9,1.6,23.5,4.8
			s11.7,7.7,15.2,13.4c3.6,5.8,5.4,12.6,5.4,20.6h-27.4c0-4.4-1.5-7.9-4.6-10.5s-7.2-3.8-12.4-3.8c-5.6,0-10,1.2-13.4,3.6
			c-3.3,2.4-5,5.7-5,9.9c0,3.9,1,6.8,3.1,8.8c2,2,5.3,3.5,9.7,4.4l18.9,3.9c11.2,2.3,19.6,6.2,25,11.8s8.2,13.4,8.2,23.4
			c0,8.1-2,15.1-6,21.2c-4,6.1-9.6,10.7-16.8,14s-15.6,4.9-25.3,4.9c-9.3,0-17.4-1.6-24.4-4.8s-12.4-7.7-16.2-13.5
			s-5.7-12.7-5.7-20.5h27.4c0,4.5,1.6,8.1,4.9,10.5c3.3,2.5,8,3.7,14.1,3.7c6.2,0,11.2-1.2,14.8-3.5s5.4-5.5,5.4-9.4
			c0-3.5-0.9-6.2-2.6-8.2c-1.8-1.9-4.7-3.3-8.9-4.1l-19.2-3.9c-11.2-2.3-19.7-6.6-25.4-12.9C162.1,60.2,159.3,51.9,159.3,41.6z"/>
		<path d="M292.8,130.9h-26.2V2.6H293v52.1c2.6-3.6,6.2-6.5,10.8-8.5c4.6-2,9.7-3.1,15.2-3.1c10.1,0,18,3.1,23.6,9.3
			s8.4,14.8,8.4,25.9v52.6h-26.2V84.6c0-3.6-0.6-6.7-1.9-9.4c-1.2-2.6-3-4.6-5.2-6.1s-4.8-2.2-7.9-2.2c-3.4,0-6.4,0.7-8.9,2.1
			c-2.6,1.4-4.5,3.4-6,6c-1.4,2.6-2.1,5.7-2.1,9.2V130.9z"/>
		<path d="M382.7,32.5c-4.2,0-7.7-1.4-10.6-4.3s-4.3-6.4-4.3-10.6s1.4-7.7,4.3-10.5s6.4-4.3,10.6-4.3c4.1,0,7.6,1.4,10.5,4.3
			c2.9,2.8,4.3,6.4,4.3,10.5c0,4.2-1.4,7.7-4.3,10.6C390.2,31.1,386.7,32.5,382.7,32.5z M369.7,130.9V45.8h26.2v85.1H369.7z"/>
		<path d="M415.7,171.7V45.8h24.7l1.4,10.4c2.4-4,6.1-7.1,11.1-9.5s10.5-3.6,16.5-3.6c7.9,0,14.9,1.8,20.9,5.3s10.7,8.5,14.1,15.1
			c3.4,6.5,5.1,14.4,5.1,23.6c0,9-1.6,16.9-4.7,23.9s-7.7,12.4-13.6,16.4c-6,4-13.2,6-21.7,6c-5.9,0-11.3-1-16.3-3.1
			c-5-2-8.7-4.6-11.2-7.8v49.3L415.7,171.7L415.7,171.7z M442,88.4c0,4.2,0.9,7.9,2.6,11.1c1.8,3.2,4.2,5.7,7.3,7.5
			c3.1,1.8,6.7,2.6,10.8,2.6c4.2,0,7.8-0.9,10.8-2.7c3-1.8,5.3-4.3,7-7.5c1.6-3.2,2.5-6.9,2.5-11.1s-0.8-7.9-2.5-11.1
			c-1.6-3.2-4-5.7-7-7.5s-6.6-2.7-10.8-2.7c-4.1,0-7.7,0.9-10.8,2.6c-3.1,1.8-5.6,4.2-7.3,7.4C442.9,80.3,442,84,442,88.4z"/>
		<path d="M524.9,96.5V73.4h58.2v23.1H524.9z"/>
		<path d="M597,104h24.8c0.2,3,1.4,5.3,3.6,7c2.2,1.7,5.2,2.6,9.2,2.6c4.1,0,7.1-0.7,9-2c1.9-1.4,2.9-3.1,2.9-5.3
			c0-1.2-0.5-2.5-1.4-3.7c-1-1.2-3-2.2-6.2-2.9l-15.7-3.4c-7.8-1.7-13.7-4.5-17.5-8.3c-3.9-3.8-5.8-9.4-5.8-16.9
			c0-5.9,1.6-10.9,4.7-15.1c3.1-4.1,7.3-7.3,12.7-9.5c5.3-2.2,11.4-3.3,18.2-3.3c6.6,0,12.4,1.2,17.4,3.6c5,2.4,9,5.7,11.8,10
			s4.3,9.4,4.3,15.1h-24.8c0-2.9-0.9-5.3-2.6-7.1c-1.7-1.8-4.1-2.6-7.3-2.6c-3,0-5.3,0.7-7.1,2.1c-1.8,1.4-2.6,3.3-2.6,5.5
			c0,3.6,3.1,6.1,9.2,7.5l15.8,3.4c7,1.5,12.4,4,16.1,7.6c3.7,3.6,5.5,8.8,5.5,15.6c0,6-1.6,11.2-4.8,15.7
			c-3.2,4.4-7.6,7.8-13.3,10.1s-12.2,3.5-19.6,3.5c-11.2,0-20.1-2.7-26.7-8.1C600.3,119.6,597,112.6,597,104z"/>
		<path d="M710.5,133.1c-9,0-16.1-2.5-21.4-7.4s-7.9-11.5-7.9-19.8c0-7.8,2.7-14.1,8.1-18.7c5.4-4.6,13.2-7.4,23.4-8.2l23.8-1.9
			v-1.4c0-2.8-0.6-5.2-1.7-7.1c-1.1-1.9-2.8-3.3-4.8-4.3c-2.1-1-4.7-1.4-7.9-1.4c-5.6,0-9.8,1-12.7,3.1c-2.9,2-4.3,5-4.3,8.8h-21.8
			c0-6.5,1.6-12.1,4.9-16.8c3.3-4.8,8-8.4,14-11.1c6.1-2.6,13.1-3.9,21.2-3.9c8.3,0,15.3,1.5,21,4.4c5.7,3,10.1,7.3,13.1,12.9
			c3,5.7,4.5,12.6,4.5,20.8v49.7h-23.1l-1.7-11.2c-1.4,3.9-4.6,7.1-9.6,9.6C722.6,131.8,716.9,133.1,710.5,133.1z M719.7,113.7
			c5,0,9.1-1.2,12.2-3.7c3.2-2.4,4.8-6.1,4.8-11v-4.6l-13.3,1.2c-5.7,0.5-9.7,1.4-12,2.8s-3.5,3.5-3.5,6.2c0,3.1,1,5.3,2.9,6.8
			C712.8,113,715.7,113.7,719.7,113.7z"/>
		<path d="M772.8,45.8h58.4v21.8h-58.4V45.8z M831.2,3.6v22.5c-1.5,0-2.8,0-4,0s-2.3,0-3.3,0c-5.3,0-8.8,1.2-10.5,3.7
			s-2.6,5.6-2.6,9.2v91.9h-26.2V39c0-8.5,1.4-15.4,4.3-20.8c2.8-5.3,6.9-9.3,12.1-11.8c5.2-2.6,11.4-3.8,18.5-3.8
			c1.8,0,3.7,0.1,5.7,0.3C827.1,3,829.1,3.3,831.2,3.6z"/>
		<path d="M882.4,133.1c-8.5,0-16.1-1.9-22.7-5.8c-6.6-3.9-11.9-9.2-15.7-15.9c-3.8-6.7-5.7-14.5-5.7-23.2c0-8.8,1.8-16.6,5.5-23.4
			c3.7-6.7,8.8-12.1,15.4-15.9c6.6-3.9,14.1-5.8,22.6-5.8c9,0,16.7,1.8,23.1,5.5c6.5,3.7,11.5,8.9,15,15.7s5.3,14.8,5.3,24.1V95
			L852,95.3l0.3-16.2h46.8c0-4.5-1.5-8.1-4.6-10.8c-3.1-2.7-7.3-4-12.6-4c-4.4,0-8,0.9-10.8,2.6s-4.8,4.3-6.2,7.9s-2,8.1-2,13.7
			c0,7.9,1.6,13.8,4.8,17.6c3.2,3.8,8.3,5.7,15.1,5.7c5,0,9.1-0.9,12.4-2.6c3.3-1.7,5.4-4.1,6.3-7.1h24c-1.5,9.4-6.1,16.9-14,22.5
			S894.1,133.1,882.4,133.1z"/>
		<path d="M966.9,130.9h-26.2V2.6h26.2V130.9z"/>
		<path d="M1005.7,45.8l25,73.5l-12.8,30.3L977.6,45.8H1005.7z M979.9,171.7v-21.9h14.5c2.9,0,5.4-0.4,7.3-1.1
			c1.9-0.7,3.6-2,4.9-3.7c1.4-1.7,2.6-4.1,3.7-7.1l34.5-92h27.2l-43.2,103.6c-3.5,8.6-7.8,14.9-12.8,18.8c-5,3.9-11.3,5.9-18.8,5.9
			c-3.2,0-6.2-0.2-9.1-0.6C985.2,173.1,982.5,172.5,979.9,171.7z"/>
		<path d="M1099.1,133.1c-4.3,0-8-1.5-11.1-4.5s-4.6-6.6-4.6-10.8c0-4.3,1.5-8,4.6-11s6.7-4.5,11.1-4.5c4.2,0,7.9,1.5,11,4.5
			s4.7,6.7,4.7,11c0,4.2-1.6,7.8-4.7,10.8S1103.3,133.1,1099.1,133.1z"/>
	</g>
</g>
<g class="st1">
	<path d="M493.7,160.8c0.8-1.4,2.4-2.6,4.5-2.6c3.3,0,5.8,2.7,5.8,7.2c0,4.6-2.7,7.3-6.1,7.3c-2.4,0-3.9-1.3-4.6-3.2l-0.4,2.8h-2.4
		v-20.6h3.1v9.1H493.7z M497.3,170.1c2.1,0,3.6-1.8,3.6-4.7c0-2.8-1.5-4.7-3.6-4.7c-1.8,0-3.7,1.4-3.7,4.7
		C493.6,168.8,495.6,170.1,497.3,170.1z"/>
	<path d="M524,173.3l0.5-1.1l-5.7-13.5h3.5l3.9,10.1h0.1l3.9-10.1h3.2l-6.3,14.9c-1.1,2.7-2.7,5-5.7,5c-0.6,0-1.3-0.1-2-0.3l0.4-2.5
		c0.4,0.1,0.9,0.2,1.3,0.2C522.4,175.8,523.3,174.8,524,173.3z"/>
	<path d="M571.9,158.6l0.4,3.3c0.9-2.2,2.7-3.7,5.1-3.7c3.5,0,4.9,2.8,4.9,6v8.1h-3.1v-7.7c0-2.4-1-3.7-3-3.7
		c-2.1,0-3.6,1.8-3.6,4.1v7.4h-3.1v-13.8L571.9,158.6L571.9,158.6z"/>
	<path d="M599.9,160c1.4-1,3.2-1.7,5.5-1.7c2.7,0,5.7,1.1,5.7,5.7v4.4c0,1.3,0.6,1.7,1.7,1.7v2.3h-0.9c-1.8,0-3-0.7-3.3-2.6
		c-1,1.9-2.9,2.9-5.1,2.9c-2.5,0-4.5-1.3-4.5-3.8c0-3.5,3.9-4.7,8.6-4.7h0.4v-0.3c0-2.5-1.4-3.1-3-3.1c-1.7,0-3.1,0.6-4.1,1.4
		L599.9,160z M607.7,166.3c-3.2,0-5.5,0.5-5.5,2.3c0,1.1,0.9,1.8,2.2,1.8c2.3,0,3.6-1.9,3.6-4h-0.3V166.3z"/>
	<path d="M631.5,158.6l0.4,3.3c0.9-2.2,2.7-3.7,5.1-3.7c3.5,0,4.9,2.8,4.9,6v8.1h-3.1v-7.7c0-2.4-1-3.7-3-3.7
		c-2.1,0-3.6,1.8-3.6,4.1v7.4h-3.1v-13.8L631.5,158.6L631.5,158.6z"/>
	<path d="M665.7,158.3c4.1,0,6.9,3,6.9,7.2s-2.8,7.3-7,7.3c-4.1,0-6.9-3-6.9-7.2C658.7,161.4,661.6,158.3,665.7,158.3z M665.7,170.1
		c2.4,0,3.9-1.9,3.9-4.7c0-2.7-1.5-4.7-3.8-4.7s-3.9,1.9-3.9,4.7C661.9,168.1,663.3,170.1,665.7,170.1z"/>
	<path d="M690.2,152.5h3.1v19.9h-3.1V152.5z"/>
	<path d="M714.1,158.6l0.4,3.3c0.9-2.2,2.7-3.7,5.1-3.7c3.5,0,4.9,2.8,4.9,6v8.1h-3.1v-7.7c0-2.4-1-3.7-3-3.7
		c-2.1,0-3.6,1.8-3.6,4.1v7.4h-3.1v-13.8L714.1,158.6L714.1,158.6z"/>
	<path d="M742.5,168.4c1,1,2.8,1.8,4.7,1.8s2.7-0.7,2.7-1.7s-0.9-1.5-3-1.9c-2.9-0.5-5.3-1.3-5.3-4.2c0-2.6,2.5-4.3,5.5-4.3
		c2.6,0,4.4,0.9,5.4,2l-1.3,2c-0.9-1-2.5-1.7-4-1.7c-1.6,0-2.6,0.6-2.6,1.7c0,1,0.9,1.4,3.1,1.9c2.7,0.5,5.3,1.4,5.3,4.2
		c0,2.6-2,4.4-5.8,4.4c-2.6,0-4.9-1.1-5.9-2.3L742.5,168.4z"/>
	<path d="M779.5,169.3c-0.8,2.1-2.3,3.4-4.8,3.4c-3.7,0-5.1-2.6-5.1-6v-8.1h3.1v7.8c0,2.1,0.7,3.7,3.1,3.7c2.4,0,3.5-2,3.5-4.3v-7.2
		h3.1v13.8H780L779.5,169.3z"/>
	<path d="M802.5,158.6l0.4,2.9c1.1-1.9,3.1-3.2,5.7-3.3v3.1c-2.7,0.1-4.6,1.4-5.5,2.5v8.6H800v-13.8H802.5z"/>
	<path d="M824.8,160c1.4-1,3.2-1.7,5.5-1.7c2.7,0,5.7,1.1,5.7,5.7v4.4c0,1.3,0.6,1.7,1.7,1.7v2.3h-0.9c-1.8,0-3-0.7-3.3-2.6
		c-1,1.9-2.9,2.9-5.1,2.9c-2.5,0-4.5-1.3-4.5-3.8c0-3.5,3.9-4.7,8.6-4.7h0.4v-0.3c0-2.5-1.4-3.1-3-3.1c-1.7,0-3.1,0.6-4.1,1.4
		L824.8,160z M832.6,166.3c-3.2,0-5.5,0.5-5.5,2.3c0,1.1,0.9,1.8,2.2,1.8c2.3,0,3.6-1.9,3.6-4h-0.3V166.3z"/>
	<path d="M856.5,158.6l0.4,3.3c0.9-2.2,2.7-3.7,5.1-3.7c3.5,0,4.9,2.8,4.9,6v8.1h-3.1v-7.7c0-2.4-1-3.7-3-3.7
		c-2.1,0-3.6,1.8-3.6,4.1v7.4h-3.1v-13.8L856.5,158.6L856.5,158.6z"/>
	<path d="M894.7,162.8c-0.9-1.1-2.1-1.9-3.7-1.9c-2.4,0-4.2,1.8-4.2,4.5s1.8,4.5,4.1,4.5c1.8,0,3.2-1.1,4-2l1.4,2.1
		c-1.2,1.5-3.3,2.7-5.7,2.7c-4.2,0-6.9-3.3-6.9-7.2c0-4,2.7-7.3,7.2-7.3c2.1,0,4,0.9,5.2,2.4L894.7,162.8z"/>
	<path d="M915.1,166.4c0.3,2.3,1.9,3.6,4.1,3.6c1.8,0,3.3-0.9,4.3-2l1.3,2c-1.2,1.5-3.2,2.6-5.9,2.6c-4.4,0-6.9-3.1-6.9-7.2
		c0-4,2.6-7.2,6.8-7.2c3.6,0,6.4,2.4,6.4,7c0,0.3,0,1.1-0.1,1.2L915.1,166.4L915.1,166.4z M915.1,164.3h7.1
		c-0.1-2.1-1.2-3.6-3.3-3.6S915.4,162.1,915.1,164.3z"/>
</g>
<g class="st1">
	<path class="st2" d="M493.7,160.8c0.8-1.4,2.4-2.6,4.5-2.6c3.3,0,5.8,2.7,5.8,7.2c0,4.6-2.7,7.3-6.1,7.3c-2.4,0-3.9-1.3-4.6-3.2
		l-0.4,2.8h-2.4v-20.6h3.1v9.1H493.7z M497.3,170.1c2.1,0,3.6-1.8,3.6-4.7c0-2.8-1.5-4.7-3.6-4.7c-1.8,0-3.7,1.4-3.7,4.7
		C493.6,168.8,495.6,170.1,497.3,170.1z"/>
	<path class="st2" d="M524,173.3l0.5-1.1l-5.7-13.5h3.5l3.9,10.1h0.1l3.9-10.1h3.2l-6.3,14.9c-1.1,2.7-2.7,5-5.7,5
		c-0.6,0-1.3-0.1-2-0.3l0.4-2.5c0.4,0.1,0.9,0.2,1.3,0.2C522.4,175.8,523.3,174.8,524,173.3z"/>
	<path class="st2" d="M571.9,158.6l0.4,3.3c0.9-2.2,2.7-3.7,5.1-3.7c3.5,0,4.9,2.8,4.9,6v8.1h-3.1v-7.7c0-2.4-1-3.7-3-3.7
		c-2.1,0-3.6,1.8-3.6,4.1v7.4h-3.1v-13.8L571.9,158.6L571.9,158.6z"/>
	<path class="st2" d="M599.9,160c1.4-1,3.2-1.7,5.5-1.7c2.7,0,5.7,1.1,5.7,5.7v4.4c0,1.3,0.6,1.7,1.7,1.7v2.3h-0.9
		c-1.8,0-3-0.7-3.3-2.6c-1,1.9-2.9,2.9-5.1,2.9c-2.5,0-4.5-1.3-4.5-3.8c0-3.5,3.9-4.7,8.6-4.7h0.4v-0.3c0-2.5-1.4-3.1-3-3.1
		c-1.7,0-3.1,0.6-4.1,1.4L599.9,160z M607.7,166.3c-3.2,0-5.5,0.5-5.5,2.3c0,1.1,0.9,1.8,2.2,1.8c2.3,0,3.6-1.9,3.6-4h-0.3V166.3z"
		/>
	<path class="st2" d="M631.5,158.6l0.4,3.3c0.9-2.2,2.7-3.7,5.1-3.7c3.5,0,4.9,2.8,4.9,6v8.1h-3.1v-7.7c0-2.4-1-3.7-3-3.7
		c-2.1,0-3.6,1.8-3.6,4.1v7.4h-3.1v-13.8L631.5,158.6L631.5,158.6z"/>
	<path class="st2" d="M665.7,158.3c4.1,0,6.9,3,6.9,7.2s-2.8,7.3-7,7.3c-4.1,0-6.9-3-6.9-7.2C658.7,161.4,661.6,158.3,665.7,158.3z
		 M665.7,170.1c2.4,0,3.9-1.9,3.9-4.7c0-2.7-1.5-4.7-3.8-4.7s-3.9,1.9-3.9,4.7C661.9,168.1,663.3,170.1,665.7,170.1z"/>
	<path class="st2" d="M690.2,152.5h3.1v19.9h-3.1V152.5z"/>
	<path class="st2" d="M714.1,158.6l0.4,3.3c0.9-2.2,2.7-3.7,5.1-3.7c3.5,0,4.9,2.8,4.9,6v8.1h-3.1v-7.7c0-2.4-1-3.7-3-3.7
		c-2.1,0-3.6,1.8-3.6,4.1v7.4h-3.1v-13.8L714.1,158.6L714.1,158.6z"/>
	<path class="st2" d="M742.5,168.4c1,1,2.8,1.8,4.7,1.8s2.7-0.7,2.7-1.7s-0.9-1.5-3-1.9c-2.9-0.5-5.3-1.3-5.3-4.2
		c0-2.6,2.5-4.3,5.5-4.3c2.6,0,4.4,0.9,5.4,2l-1.3,2c-0.9-1-2.5-1.7-4-1.7c-1.6,0-2.6,0.6-2.6,1.7c0,1,0.9,1.4,3.1,1.9
		c2.7,0.5,5.3,1.4,5.3,4.2c0,2.6-2,4.4-5.8,4.4c-2.6,0-4.9-1.1-5.9-2.3L742.5,168.4z"/>
	<path class="st2" d="M779.5,169.3c-0.8,2.1-2.3,3.4-4.8,3.4c-3.7,0-5.1-2.6-5.1-6v-8.1h3.1v7.8c0,2.1,0.7,3.7,3.1,3.7
		c2.4,0,3.5-2,3.5-4.3v-7.2h3.1v13.8H780L779.5,169.3z"/>
	<path class="st2" d="M802.5,158.6l0.4,2.9c1.1-1.9,3.1-3.2,5.7-3.3v3.1c-2.7,0.1-4.6,1.4-5.5,2.5v8.6H800v-13.8H802.5z"/>
	<path class="st2" d="M824.8,160c1.4-1,3.2-1.7,5.5-1.7c2.7,0,5.7,1.1,5.7,5.7v4.4c0,1.3,0.6,1.7,1.7,1.7v2.3h-0.9
		c-1.8,0-3-0.7-3.3-2.6c-1,1.9-2.9,2.9-5.1,2.9c-2.5,0-4.5-1.3-4.5-3.8c0-3.5,3.9-4.7,8.6-4.7h0.4v-0.3c0-2.5-1.4-3.1-3-3.1
		c-1.7,0-3.1,0.6-4.1,1.4L824.8,160z M832.6,166.3c-3.2,0-5.5,0.5-5.5,2.3c0,1.1,0.9,1.8,2.2,1.8c2.3,0,3.6-1.9,3.6-4h-0.3V166.3z"
		/>
	<path class="st2" d="M856.5,158.6l0.4,3.3c0.9-2.2,2.7-3.7,5.1-3.7c3.5,0,4.9,2.8,4.9,6v8.1h-3.1v-7.7c0-2.4-1-3.7-3-3.7
		c-2.1,0-3.6,1.8-3.6,4.1v7.4h-3.1v-13.8L856.5,158.6L856.5,158.6z"/>
	<path class="st2" d="M894.7,162.8c-0.9-1.1-2.1-1.9-3.7-1.9c-2.4,0-4.2,1.8-4.2,4.5s1.8,4.5,4.1,4.5c1.8,0,3.2-1.1,4-2l1.4,2.1
		c-1.2,1.5-3.3,2.7-5.7,2.7c-4.2,0-6.9-3.3-6.9-7.2c0-4,2.7-7.3,7.2-7.3c2.1,0,4,0.9,5.2,2.4L894.7,162.8z"/>
	<path class="st2" d="M915.1,166.4c0.3,2.3,1.9,3.6,4.1,3.6c1.8,0,3.3-0.9,4.3-2l1.3,2c-1.2,1.5-3.2,2.6-5.9,2.6
		c-4.4,0-6.9-3.1-6.9-7.2c0-4,2.6-7.2,6.8-7.2c3.6,0,6.4,2.4,6.4,7c0,0.3,0,1.1-0.1,1.2L915.1,166.4L915.1,166.4z M915.1,164.3h7.1
		c-0.1-2.1-1.2-3.6-3.3-3.6S915.4,162.1,915.1,164.3z"/>
</g>
</svg>
